# xmcd CD database file
#
# Track frame offsets:
#	150
#	15687
#	23512
#	36000
#	44695
#	57132
#	68955
#	80032
#	90705
#	104682
#	116607
#	126985
#	140972
#	151660
#	162022
#	170367
#	183552
#	196217
#
# Disc length: 2745 seconds
#
# Revision: 0
# Processed by: cddbd v1.4b42PL1 Copyright (c) Steve Scherf et al.
# Submitted via: CDex 1.40Beta8
#
DISCID=f60ab712
DTITLE=Ricky Skaggs - Rising Star
DYEAR=1986
DGENRE=Country
TTITLE0=River underground
TTITLE1=Let's keep old glory waving
TTITLE2=Working on a building
TTITLE3=Take me back
TTITLE4=Rock bottom
TTITLE5=Are you proud of Amreica
TTITLE6=Keep my love with you
TTITLE7=You're going away
TTITLE8=Another song
TTITLE9=The darkest hour is just before dawn
TTITLE10=Master's boquet
TTITLE11=Let me walk lord by your side
TTITLE12=In heaven we'll never grow old
TTITLE13=Wings of angels
TTITLE14=A few more seasons to come
TTITLE15=white dove
TTITLE16=Shouting on the hills of glory
TTITLE17=Leaning on Jesus
EXTD=YEAR: 1986 ID3G: 2
EXTT0=
EXTT1=
EXTT2=
EXTT3=
EXTT4=
EXTT5=
EXTT6=
EXTT7=
EXTT8=
EXTT9=
EXTT10=
EXTT11=
EXTT12=
EXTT13=
EXTT14=
EXTT15=
EXTT16=
EXTT17=
PLAYORDER=
